<svg width="24" height="24" viewBox="0 0 24 24" fill="none" xmlns="http://www.w3.org/2000/svg">
<path d="M7.48828 6.65625C7.48828 5.23467 6.33173 4.07812 4.91016 4.07812C3.48858 4.07812 2.33203 5.23467 2.33203 6.65625C2.33203 8.07783 3.48858 9.23438 4.91016 9.23438C6.33173 9.23438 7.48828 8.07783 7.48828 6.65625ZM4.91016 7.94531C4.19937 7.94531 3.62109 7.36704 3.62109 6.65625C3.62109 5.94546 4.19937 5.36719 4.91016 5.36719C5.62095 5.36719 6.19922 5.94546 6.19922 6.65625C6.19922 7.36704 5.62095 7.94531 4.91016 7.94531Z" fill="#8F8F8F"/>
<path d="M21.668 6.65625C21.668 5.23467 20.5114 4.07812 19.0898 4.07812C17.6683 4.07812 16.5117 5.23467 16.5117 6.65625C16.5117 8.07783 17.6683 9.23438 19.0898 9.23438C20.5114 9.23438 21.668 8.07783 21.668 6.65625ZM19.0898 7.94531C18.3791 7.94531 17.8008 7.36704 17.8008 6.65625C17.8008 5.94546 18.3791 5.36719 19.0898 5.36719C19.8006 5.36719 20.3789 5.94546 20.3789 6.65625C20.3789 7.36704 19.8006 7.94531 19.0898 7.94531Z" fill="#8F8F8F"/>
<path d="M19.0898 9.23438C17.8991 9.23438 16.8324 9.77552 16.1225 10.6246C15.4187 9.04742 13.8357 7.94531 12 7.94531C10.1643 7.94531 8.58132 9.04742 7.87754 10.6246C7.16756 9.77552 6.10095 9.23438 4.91016 9.23438C2.76537 9.23438 1 10.9713 1 13.1016V16.3242C1 16.6802 1.28858 16.9688 1.64453 16.9688H2.34952L2.93673 22.9188C2.96926 23.2486 3.24666 23.5 3.57812 23.5H6.19922C6.53068 23.5 6.80809 23.2486 6.84061 22.9188L7.42782 16.9688H9.58013L10.0686 22.9083C10.0961 23.2427 10.3754 23.5 10.7109 23.5H13.2891C13.6246 23.5 13.9039 23.2427 13.9314 22.9083L14.4199 16.9688H16.5722L17.1593 22.9188C17.1919 23.2486 17.4693 23.5 17.8008 23.5H20.4219C20.7533 23.5 21.0307 23.2486 21.0633 22.9188L21.6505 16.9688H22.3555C22.7114 16.9688 23 16.6802 23 16.3242V13.1016C23 10.9738 21.2369 9.23438 19.0898 9.23438ZM6.84375 15.6797C6.51229 15.6797 6.23488 15.9311 6.20236 16.2609L5.61514 22.2109H4.1622L3.57499 16.2609C3.54246 15.9311 3.26505 15.6797 2.93359 15.6797H2.28906V13.1016C2.28906 11.68 3.46486 10.5234 4.91016 10.5234C6.33173 10.5234 7.48828 11.68 7.48828 13.1016V15.6797H6.84375ZM13.8262 15.6797C13.4907 15.6797 13.2113 15.937 13.1839 16.2714L12.6954 22.2109H11.3046L10.8162 16.2714C10.7887 15.9371 10.5093 15.6797 10.1738 15.6797H8.77734V12.457C8.77734 10.9007 9.88628 9.59866 11.3555 9.29921V12.457C11.3555 12.813 11.644 13.1016 12 13.1016C12.356 13.1016 12.6445 12.813 12.6445 12.457V9.29921C14.1137 9.59862 15.2227 10.9007 15.2227 12.457V15.6797H13.8262ZM21.7109 15.6797H21.0664C20.7349 15.6797 20.4575 15.9311 20.425 16.2609L19.8378 22.2109H18.3849L17.7977 16.2609C17.7651 15.9311 17.4877 15.6797 17.1562 15.6797H16.5117V13.1016C16.5117 11.68 17.6683 10.5234 19.0898 10.5234C20.5351 10.5234 21.7109 11.68 21.7109 13.1016V15.6797Z" fill="#8F8F8F"/>
<path d="M15.2227 4.72266C15.2227 2.94568 13.777 1.5 12 1.5C10.223 1.5 8.77734 2.94568 8.77734 4.72266C8.77734 6.49963 10.223 7.94531 12 7.94531C13.777 7.94531 15.2227 6.49963 15.2227 4.72266ZM12 6.65625C10.9338 6.65625 10.0664 5.78884 10.0664 4.72266C10.0664 3.65647 10.9338 2.78906 12 2.78906C13.0662 2.78906 13.9336 3.65647 13.9336 4.72266C13.9336 5.78884 13.0662 6.65625 12 6.65625Z" fill="#8F8F8F"/>
</svg>
