<svg width="20" height="9" viewBox="0 0 20 9" fill="none" xmlns="http://www.w3.org/2000/svg">
<path d="M3.77942 1.09406C4.01489 0.799531 4.17465 0.404102 4.13254 0C3.78786 0.0171484 3.36723 0.227421 3.12372 0.522148C2.90504 0.77457 2.71153 1.18656 2.762 1.57371C3.14887 1.60727 3.53547 1.38031 3.77942 1.09406Z" fill="black"/>
<path d="M4.12865 1.64922C3.56673 1.61574 3.08896 1.96812 2.8206 1.96812C2.55212 1.96812 2.14119 1.66609 1.69673 1.67422C1.11826 1.68273 0.5815 2.0098 0.287945 2.53C-0.315844 3.57066 0.128609 5.11433 0.715758 5.96187C1.00087 6.38117 1.34455 6.84289 1.79732 6.82629C2.22513 6.80949 2.39283 6.54925 2.91283 6.54925C3.43248 6.54925 3.58353 6.82629 4.03638 6.81789C4.50603 6.80949 4.79962 6.39836 5.08474 5.97863C5.41185 5.50062 5.54576 5.0391 5.55416 5.01375C5.54572 5.00535 4.64857 4.66117 4.64025 3.62918C4.63177 2.76507 5.34462 2.35402 5.37818 2.32855C4.97568 1.73324 4.3467 1.66609 4.12865 1.64922Z" fill="black"/>
<path d="M9.02 0.47998C10.2413 0.47998 11.0918 1.32186 11.0918 2.54756C11.0918 3.77764 10.2238 4.62389 8.98938 4.62389H7.63715V6.77432H6.66016V0.47998H9.02ZM7.63711 3.80381H8.75813C9.60875 3.80381 10.0929 3.34584 10.0929 2.55193C10.0929 1.75811 9.60875 1.30443 8.7625 1.30443H7.63711V3.80381Z" fill="black"/>
<path d="M11.3477 5.47C11.3477 4.66734 11.9627 4.17445 13.0533 4.1134L14.3095 4.03926V3.68598C14.3095 3.17562 13.9648 2.87027 13.3892 2.87027C12.8438 2.87027 12.5036 3.13195 12.4208 3.54203H11.5309C11.5833 2.7132 12.2898 2.10254 13.424 2.10254C14.5363 2.10254 15.2473 2.69141 15.2473 3.61176V6.77418H14.3443V6.01957H14.3226C14.0565 6.52996 13.4763 6.8527 12.8744 6.8527C11.9758 6.8527 11.3477 6.29434 11.3477 5.47ZM14.3094 5.05562V4.69359L13.1796 4.76336C12.617 4.80266 12.2986 5.05129 12.2986 5.44387C12.2986 5.84512 12.63 6.10687 13.1361 6.10687C13.7947 6.1068 14.3094 5.65316 14.3094 5.05562Z" fill="black"/>
<path d="M16.0982 8.46246V7.6991C16.1679 7.71652 16.3249 7.71652 16.4034 7.71652C16.8396 7.71652 17.0752 7.53336 17.2191 7.06227C17.2191 7.05352 17.302 6.78309 17.302 6.77871L15.6445 2.18555H16.6651L17.8255 5.91941H17.8429L19.0033 2.18555H19.9977L18.279 7.01422C17.8866 8.1266 17.4329 8.48426 16.482 8.48426C16.4034 8.48426 16.1679 8.47551 16.0982 8.46246Z" fill="black"/>
</svg>
