<svg width="20" height="8" viewBox="0 0 20 8" fill="none" xmlns="http://www.w3.org/2000/svg">
<path d="M9.33578 3.8166V6.1302H8.60156V0.416992H10.548C11.0413 0.416992 11.462 0.581445 11.8061 0.910312C12.158 1.23918 12.3339 1.6407 12.3339 2.11488C12.3339 2.60055 12.158 3.00207 11.8061 3.32711C11.4658 3.65215 11.0452 3.81277 10.548 3.81277H9.33578V3.8166ZM9.33578 1.12063V3.11297H10.5633C10.8539 3.11297 11.0987 3.01355 11.2899 2.81852C11.4849 2.62348 11.5843 2.38641 11.5843 2.11871C11.5843 1.85484 11.4849 1.62156 11.2899 1.42656C11.0987 1.22387 10.8578 1.12445 10.5633 1.12445H9.33578V1.12063Z" fill="#383E41"/>
<path d="M14.2524 2.0918C14.7954 2.0918 15.2237 2.23711 15.5373 2.52773C15.8509 2.81836 16.0077 3.21605 16.0077 3.72086V6.13004H15.3079V5.58703H15.2773C14.9752 6.03445 14.5698 6.25625 14.065 6.25625C13.6329 6.25625 13.2734 6.13004 12.9828 5.87383C12.6922 5.61762 12.5469 5.3002 12.5469 4.91781C12.5469 4.51246 12.6998 4.19125 13.0058 3.95414C13.3117 3.71324 13.7209 3.59469 14.2295 3.59469C14.6654 3.59469 15.0249 3.675 15.3041 3.83559V3.66734C15.3041 3.41113 15.2046 3.19699 15.002 3.01727C14.7993 2.83754 14.5622 2.74957 14.2907 2.74957C13.8815 2.74957 13.5564 2.92164 13.3193 3.26965L12.673 2.8643C13.0287 2.34801 13.5564 2.0918 14.2524 2.0918ZM13.3041 4.92926C13.3041 5.12047 13.3844 5.28109 13.5488 5.40727C13.7094 5.53348 13.9006 5.59848 14.1186 5.59848C14.4284 5.59848 14.7037 5.48375 14.9446 5.2543C15.1855 5.02484 15.3079 4.75715 15.3079 4.44742C15.0784 4.26769 14.7611 4.1759 14.3519 4.1759C14.0536 4.1759 13.805 4.24855 13.6062 4.39004C13.4035 4.53918 13.3041 4.71895 13.3041 4.92926Z" fill="#383E41"/>
<path d="M20.002 2.21826L17.5546 7.84732H16.7974L17.7075 5.87791L16.0938 2.21826H16.893L18.0555 5.02514H18.0708L19.2027 2.21826H20.002Z" fill="#383E41"/>
<path d="M6.35105 2.66113H3.27344V3.92309L5.0459 3.92348C4.97402 4.34336 4.74266 4.70129 4.38816 4.93992V4.94016C4.38828 4.94008 4.38844 4.94 4.38855 4.93992L4.35664 5.69418L5.44363 5.75828C5.44348 5.7584 5.44332 5.75855 5.4432 5.75867C6.05926 5.18851 6.41227 4.34566 6.41227 3.34988C6.41223 3.11047 6.39082 2.88141 6.35105 2.66113Z" fill="#0085F7"/>
<path d="M4.38953 4.93986C4.38941 4.93994 4.38926 4.94002 4.38914 4.9401C4.09551 5.13803 3.71742 5.25381 3.2752 5.25381C2.42051 5.25381 1.69547 4.67791 1.43582 3.90162H1.4357C1.43574 3.90174 1.43578 3.90189 1.43582 3.90201L0.528359 3.7583L0.347656 4.74623C0.886914 5.81607 1.99504 6.55018 3.27523 6.55018C4.15988 6.55018 4.90312 6.25932 5.44422 5.75857C5.44438 5.75846 5.44453 5.75834 5.44465 5.75818L4.38953 4.93986Z" fill="#00A94B"/>
<path d="M1.33422 3.27533C1.33422 3.05736 1.37055 2.84666 1.43672 2.64857L1.15336 1.8042H0.348359C0.12543 2.24666 0 2.74607 0 3.27533C0 3.80459 0.12582 4.304 0.348359 4.74646L0.348516 4.74635L1.43672 3.90209C1.43668 3.90197 1.43664 3.90186 1.4366 3.9017C1.37051 3.70377 1.33422 3.49318 1.33422 3.27533Z" fill="#FFBB00"/>
<path d="M3.27539 0C1.99547 0 0.886875 0.734219 0.347656 1.80422L1.43598 2.64859C1.69562 1.8723 2.42066 1.29641 3.27535 1.29641C3.75832 1.29641 4.19086 1.46277 4.53234 1.78781L5.46734 0.853594C4.89949 0.324649 4.15914 0 3.27539 0Z" fill="#FF4031"/>
</svg>
