<svg width="16" height="16" viewBox="0 0 16 16" fill="none" xmlns="http://www.w3.org/2000/svg">
<g clip-path="url(#clip0_2200_910)">
<path fill-rule="evenodd" clip-rule="evenodd" d="M12.5378 13.7301C12.5378 16.2358 3.46347 16.2358 3.46347 13.7301C3.46347 11.2244 5.49506 9.19309 8.00078 9.19309C10.5065 9.19309 12.5378 11.2244 12.5378 13.7301ZM0.996594 2.71322C1.72653 2.89525 2.30113 3.46987 2.48316 4.19981C2.49019 4.22803 2.51475 4.24722 2.54381 4.24722C2.57288 4.24719 2.59738 4.22803 2.60441 4.19984C2.78644 3.46987 3.36103 2.89525 4.091 2.71325C4.11919 2.70622 4.13841 2.68169 4.13838 2.65259C4.13834 2.62353 4.11919 2.59903 4.091 2.592C3.36103 2.40997 2.78641 1.83534 2.60438 1.10534C2.59734 1.07716 2.57281 1.05797 2.54378 1.05797C2.51472 1.05797 2.49022 1.07716 2.48319 1.10534C2.30119 1.83531 1.72656 2.40994 0.996594 2.59197C0.968406 2.599 0.949219 2.62353 0.949219 2.65259C0.949219 2.68166 0.968406 2.70619 0.996594 2.71322ZM2.54381 10.6127C2.09909 10.6127 1.7385 10.2521 1.7385 9.80741C1.7385 9.36269 2.09909 9.00209 2.54381 9.00209C2.98853 9.00209 3.34912 9.36269 3.34912 9.80741C3.34909 10.2521 2.98853 10.6127 2.54381 10.6127ZM13.4574 0.390625C13.9021 0.390625 14.2627 0.751219 14.2627 1.19594C14.2627 1.64066 13.9021 2.00125 13.4574 2.00125C13.0127 2.00125 12.6521 1.64066 12.6521 1.19594C12.6521 0.751219 13.0127 0.390625 13.4574 0.390625ZM11.9102 8.41137C12.6402 8.59341 13.2148 9.16803 13.3968 9.89797C13.4038 9.92616 13.4284 9.94537 13.4575 9.94534C13.4865 9.94534 13.511 9.92616 13.5181 9.89797C13.7001 9.168 14.2747 8.59337 15.0047 8.41137C15.0329 8.40434 15.0521 8.37978 15.0521 8.35072C15.052 8.32166 15.0329 8.29716 15.0047 8.29012C14.2747 8.10809 13.7001 7.53347 13.5181 6.80347C13.511 6.77528 13.4865 6.75609 13.4575 6.75609C13.4284 6.75609 13.4039 6.77528 13.3969 6.80347C13.2149 7.53344 12.6402 8.10806 11.9103 8.29009C11.8821 8.29712 11.8629 8.32166 11.8629 8.35072C11.8629 8.37984 11.8821 8.40434 11.9102 8.41137ZM5.90375 5.88762C5.90375 7.04581 6.84256 7.98462 8.00075 7.98462C9.15894 7.98462 10.0977 7.04581 10.0977 5.88762C10.0977 4.72978 9.15894 3.79094 8.00075 3.79094C6.84259 3.79094 5.90375 4.72978 5.90375 5.88762Z" fill="#D66355"/>
</g>
<defs>
<clipPath id="clip0_2200_910">
<rect width="16" height="16" fill="white"/>
</clipPath>
</defs>
</svg>
