<svg width="20" height="9" viewBox="0 0 20 9" fill="none" xmlns="http://www.w3.org/2000/svg">
<path fill-rule="evenodd" clip-rule="evenodd" d="M19.9989 4.2998C19.9989 2.87759 19.31 1.75537 17.9933 1.75537C16.6711 1.75537 15.8711 2.87759 15.8711 4.28871C15.8711 5.96095 16.8155 6.80537 18.1711 6.80537C18.8322 6.80537 19.3322 6.65538 19.71 6.44425V5.33312C19.3322 5.52202 18.8989 5.6387 18.3488 5.6387C17.81 5.6387 17.3322 5.4498 17.2711 4.79424H19.9877C19.9878 4.72201 19.9989 4.43312 19.9989 4.2998ZM17.2544 3.77201C17.2544 3.14422 17.6378 2.8831 17.9878 2.8831C18.3267 2.8831 18.6878 3.14422 18.6878 3.77201H17.2544Z" fill="#635BFF"/>
<path fill-rule="evenodd" clip-rule="evenodd" d="M13.7271 1.75537C13.1827 1.75537 12.8326 2.01091 12.6382 2.18871L12.566 1.84427H11.3438V8.32207L12.7326 8.02763L12.7382 6.45542C12.9382 6.59987 13.2326 6.80541 13.7215 6.80541C14.716 6.80541 15.6215 6.0054 15.6215 4.2443C15.616 2.63315 14.6993 1.75537 13.7271 1.75537ZM13.3937 5.58315C13.0659 5.58315 12.8715 5.46648 12.7382 5.32203L12.7326 3.2609C12.8771 3.09977 13.0771 2.98868 13.3937 2.98868C13.8993 2.98868 14.2493 3.55534 14.2493 4.28312C14.2493 5.02759 13.9049 5.58315 13.3937 5.58315Z" fill="#635BFF"/>
<path fill-rule="evenodd" clip-rule="evenodd" d="M9.43359 1.42776L10.828 1.12777V0L9.43359 0.294442V1.42776Z" fill="#635BFF"/>
<path d="M10.828 1.8501H9.43359V6.7112H10.828V1.8501Z" fill="#635BFF"/>
<path fill-rule="evenodd" clip-rule="evenodd" d="M7.93733 2.261L7.84843 1.84989H6.64844V6.71098H8.03733V3.41654C8.36509 2.98875 8.92065 3.06656 9.09287 3.12765V1.84989C8.91511 1.78325 8.26509 1.66103 7.93733 2.261Z" fill="#635BFF"/>
<path fill-rule="evenodd" clip-rule="evenodd" d="M5.1619 0.644531L3.80633 0.933427L3.80078 5.38341C3.80078 6.20564 4.41744 6.8112 5.23967 6.8112C5.69524 6.8112 6.02855 6.72785 6.2119 6.62785V5.50008C6.03413 5.57231 5.15635 5.82784 5.15635 5.00565V3.03342H6.2119V1.85011H5.15635L5.1619 0.644531Z" fill="#635BFF"/>
<path fill-rule="evenodd" clip-rule="evenodd" d="M1.40557 3.2609C1.40557 3.04423 1.58334 2.96091 1.87778 2.96091C2.29999 2.96091 2.83333 3.08868 3.25558 3.31648V2.01091C2.79446 1.8276 2.33889 1.75537 1.87778 1.75537C0.75001 1.75537 0 2.34425 0 3.32758C0 4.86091 2.11113 4.61647 2.11113 5.27758C2.11113 5.53315 1.88891 5.61647 1.57779 5.61647C1.11668 5.61647 0.527792 5.42757 0.0611304 5.17203V6.49425C0.57779 6.71647 1.10004 6.81092 1.57779 6.81092C2.73333 6.81092 3.52779 6.23867 3.52779 5.24426C3.52225 3.5887 1.40557 3.88314 1.40557 3.2609Z" fill="#635BFF"/>
</svg>
