<svg width="75" height="75" viewBox="0 0 75 75" fill="none" xmlns="http://www.w3.org/2000/svg">
<g clip-path="url(#clip0_2186_17671)">
<path d="M40.6363 11.7283C38.8477 10.3586 36.1583 10.3586 34.3741 11.7253C25.3858 18.5911 14.5416 28.1858 6.98004 35.2507C6.65484 43.8157 6.94635 52.3806 7.86188 60.9441C8.45953 66.0945 13.399 71.0325 18.5479 71.6301C31.1851 72.9807 43.8209 72.9807 56.4581 71.6301C61.6085 71.0325 66.5464 66.093 67.1441 60.9441C68.0596 52.3792 68.3511 43.8157 68.0259 35.2507C60.4644 28.1858 49.6202 18.5925 40.6363 11.7283Z" fill="#F9973E"/>
<path d="M40.6357 11.7283C38.8471 10.3586 36.1577 10.3586 34.3735 11.7253C25.3852 18.5911 14.541 28.1858 6.97946 35.2507C6.70846 42.3918 6.86813 49.5315 7.45846 56.6726C10.7236 57.5164 14.1484 57.9661 17.6787 57.9661C37.2592 57.9661 53.6098 44.1423 57.5078 25.7219C51.9443 20.8279 45.9633 15.7991 40.6357 11.7283Z" fill="#FCA84C"/>
<path d="M48.5923 49.4336H40.2808V57.7451C40.2808 59.2803 39.0371 60.5239 37.502 60.5239C35.9668 60.5239 34.7231 59.2803 34.7231 57.7451V49.4336H26.4116C24.8765 49.4336 23.6328 48.1899 23.6328 46.6548C23.6328 45.1196 24.8765 43.876 26.4116 43.876H34.7231V35.5645C34.7231 34.0293 35.9668 32.7856 37.502 32.7856C39.0371 32.7856 40.2808 34.0293 40.2808 35.5645V43.876H48.5923C50.1274 43.876 51.3711 45.1196 51.3711 46.6548C51.3711 48.1899 50.1274 49.4336 48.5923 49.4336Z" fill="white"/>
<path d="M65.4419 23.3685C65.5986 18.7982 65.5723 6.38953 65.3628 4.43103C65.2573 3.51843 64.3813 2.64392 63.4688 2.53699C61.2305 2.29822 58.9907 2.29822 56.7524 2.53699C55.8398 2.64246 54.9653 3.51843 54.8584 4.43103C54.7441 5.50183 54.6841 9.68982 54.6797 14.0155C58.5776 17.288 62.2866 20.5414 65.4404 23.3685H65.4419Z" fill="#34344F"/>
<path d="M71.4858 37.1932C70.6216 37.1932 69.7573 36.8768 69.0791 36.2381C61.4985 29.1028 50.0449 18.9163 40.6333 11.7254C38.8447 10.3558 36.1553 10.3558 34.3711 11.7225C24.9565 18.9149 13.5029 29.1014 5.92088 36.2381C4.50877 37.5682 2.28514 37.5008 0.955058 36.0872C-0.375021 34.6751 -0.307638 32.4515 1.10594 31.1214C4.84715 27.5999 17.9927 15.3934 30.1025 6.14142C34.3887 2.85724 40.6142 2.8587 44.9033 6.14435C57.0102 15.3934 70.1557 27.5999 73.8955 31.1199C75.3076 32.45 75.375 34.6722 74.0464 36.0858C73.355 36.8196 72.4219 37.1902 71.4873 37.1902L71.4858 37.1932Z" fill="#28283F"/>
</g>
<defs>
<clipPath id="clip0_2186_17671">
<rect width="75" height="75" fill="white"/>
</clipPath>
</defs>
</svg>
