<svg width="75" height="75" viewBox="0 0 75 75" fill="none" xmlns="http://www.w3.org/2000/svg">
<path d="M7.03125 66.7969H55.0781L67.9688 53.9062V17.5781H7.03125V66.7969Z" fill="#EAE9E4"/>
<path d="M33.298 53.9063L38.3287 48.8756C38.4375 48.7667 38.5238 48.6376 38.5827 48.4954C38.6416 48.3532 38.6719 48.2008 38.6719 48.0469C38.6719 47.893 38.6416 47.7406 38.5827 47.5984C38.5238 47.4563 38.4375 47.3271 38.3287 47.2182C38.2199 47.1094 38.0907 47.0231 37.9485 46.9642C37.8063 46.9053 37.6539 46.875 37.5 46.875C37.3461 46.875 37.1937 46.9053 37.0516 46.9642C36.9094 47.0231 36.7802 47.1094 36.6714 47.2182L31.6407 52.249L26.6099 47.2182C26.5011 47.1094 26.3719 47.0231 26.2298 46.9642C26.0876 46.9053 25.9352 46.875 25.7813 46.875C25.6274 46.875 25.475 46.9053 25.3328 46.9642C25.1906 47.0231 25.0614 47.1094 24.9526 47.2182C24.8438 47.3271 24.7575 47.4563 24.6986 47.5984C24.6397 47.7406 24.6094 47.893 24.6094 48.0469C24.6094 48.2008 24.6397 48.3532 24.6986 48.4954C24.7575 48.6376 24.8438 48.7667 24.9526 48.8756L29.9833 53.9063L24.9526 58.937C24.7328 59.1568 24.6094 59.4548 24.6094 59.7657C24.6094 60.0765 24.7328 60.3745 24.9526 60.5943C25.1724 60.8141 25.4705 60.9376 25.7813 60.9376C26.0921 60.9376 26.3902 60.8141 26.6099 60.5943L31.6407 55.5636L36.6714 60.5943C36.7802 60.7031 36.9094 60.7895 37.0516 60.8484C37.1937 60.9073 37.3461 60.9376 37.5 60.9376C37.6539 60.9376 37.8063 60.9073 37.9485 60.8484C38.0907 60.7895 38.2199 60.7031 38.3287 60.5943C38.4375 60.4855 38.5238 60.3563 38.5827 60.2141C38.6416 60.0719 38.6719 59.9196 38.6719 59.7657C38.6719 59.6118 38.6416 59.4594 38.5827 59.3172C38.5238 59.175 38.4375 59.0458 38.3287 58.937L33.298 53.9063Z" fill="#EA2B2D"/>
<path d="M9.08203 8.20312H65.918C66.4619 8.20313 66.9835 8.41919 67.3681 8.80379C67.7527 9.18838 67.9688 9.71001 67.9688 10.2539V17.5781H7.03125V10.2539C7.03125 9.71001 7.24731 9.18838 7.63191 8.80379C8.01651 8.41919 8.53813 8.20313 9.08203 8.20312Z" fill="#529FFF"/>
<path d="M18.75 5.85938C18.75 4.56496 17.7007 3.51562 16.4062 3.51562C15.1118 3.51562 14.0625 4.56496 14.0625 5.85938V10.5469C14.0625 11.8413 15.1118 12.8906 16.4062 12.8906C17.7007 12.8906 18.75 11.8413 18.75 10.5469V5.85938Z" fill="#DCDBD6"/>
<path d="M32.8125 5.85938C32.8125 4.56496 31.7632 3.51562 30.4688 3.51562C29.1743 3.51562 28.125 4.56496 28.125 5.85938V10.5469C28.125 11.8413 29.1743 12.8906 30.4688 12.8906C31.7632 12.8906 32.8125 11.8413 32.8125 10.5469V5.85938Z" fill="#DCDBD6"/>
<path d="M46.875 5.85938C46.875 4.56496 45.8257 3.51562 44.5312 3.51562C43.2368 3.51562 42.1875 4.56496 42.1875 5.85938V10.5469C42.1875 11.8413 43.2368 12.8906 44.5312 12.8906C45.8257 12.8906 46.875 11.8413 46.875 10.5469V5.85938Z" fill="#DCDBD6"/>
<path d="M60.9375 5.85938C60.9375 4.56496 59.8882 3.51562 58.5938 3.51562C57.2993 3.51562 56.25 4.56496 56.25 5.85938V10.5469C56.25 11.8413 57.2993 12.8906 58.5938 12.8906C59.8882 12.8906 60.9375 11.8413 60.9375 10.5469V5.85938Z" fill="#DCDBD6"/>
<path d="M18.75 7.03125C18.75 5.73683 17.7007 4.6875 16.4062 4.6875C15.1118 4.6875 14.0625 5.73683 14.0625 7.03125V10.5469C14.0625 11.8413 15.1118 12.8906 16.4062 12.8906C17.7007 12.8906 18.75 11.8413 18.75 10.5469V7.03125Z" fill="#EAE9E4"/>
<path d="M32.8125 7.03125C32.8125 5.73683 31.7632 4.6875 30.4688 4.6875C29.1743 4.6875 28.125 5.73683 28.125 7.03125V10.5469C28.125 11.8413 29.1743 12.8906 30.4688 12.8906C31.7632 12.8906 32.8125 11.8413 32.8125 10.5469V7.03125Z" fill="#EAE9E4"/>
<path d="M46.875 7.03125C46.875 5.73683 45.8257 4.6875 44.5312 4.6875C43.2368 4.6875 42.1875 5.73683 42.1875 7.03125V10.5469C42.1875 11.8413 43.2368 12.8906 44.5312 12.8906C45.8257 12.8906 46.875 11.8413 46.875 10.5469V7.03125Z" fill="#EAE9E4"/>
<path d="M60.9375 7.03125C60.9375 5.73683 59.8882 4.6875 58.5938 4.6875C57.2993 4.6875 56.25 5.73683 56.25 7.03125V10.5469C56.25 11.8413 57.2993 12.8906 58.5938 12.8906C59.8882 12.8906 60.9375 11.8413 60.9375 10.5469V7.03125Z" fill="#EAE9E4"/>
<path d="M60.9375 23.4375H14.0625C13.7517 23.4375 13.4536 23.561 13.2339 23.7807C13.0141 24.0005 12.8906 24.2986 12.8906 24.6094V59.7656C12.8906 60.0764 13.0141 60.3745 13.2339 60.5943C13.4536 60.814 13.7517 60.9375 14.0625 60.9375C14.3733 60.9375 14.6714 60.814 14.8911 60.5943C15.1109 60.3745 15.2344 60.0764 15.2344 59.7656V49.2188H24.6094V59.7656C24.6094 60.0764 24.7328 60.3745 24.9526 60.5943C25.1724 60.814 25.4704 60.9375 25.7812 60.9375H56.25C56.5608 60.9375 56.8589 60.814 57.0786 60.5943C57.2984 60.3745 57.4219 60.0764 57.4219 59.7656C57.4219 59.4548 57.2984 59.1568 57.0786 58.937C56.8589 58.7172 56.5608 58.5938 56.25 58.5938H50.3906V49.2188H59.7656V53.9062C59.7656 54.2171 59.8891 54.5151 60.1089 54.7349C60.3286 54.9547 60.6267 55.0781 60.9375 55.0781C61.2483 55.0781 61.5464 54.9547 61.7661 54.7349C61.9859 54.5151 62.1094 54.2171 62.1094 53.9062V24.6094C62.1094 24.2986 61.9859 24.0005 61.7661 23.7807C61.5464 23.561 61.2483 23.4375 60.9375 23.4375ZM26.9531 25.7812H36.3281V35.1562H26.9531V25.7812ZM15.2344 25.7812H24.6094V35.1562H15.2344V25.7812ZM24.6094 46.875H15.2344V37.5H24.6094V46.875ZM36.3281 58.5938H26.9531V49.2188H36.3281V58.5938ZM36.3281 46.875H26.9531V37.5H36.3281V46.875ZM48.0469 58.5938H38.6719V49.2188H48.0469V58.5938ZM48.0469 46.875H38.6719V37.5H48.0469V46.875ZM48.0469 35.1562H38.6719V25.7812H48.0469V35.1562ZM59.7656 46.875H50.3906V37.5H59.7656V46.875ZM59.7656 35.1562H50.3906V25.7812H59.7656V35.1562Z" fill="#DCDBD6"/>
<path d="M42.1873 45.7021C41.9697 45.7021 41.7564 45.6415 41.5713 45.5271C41.3862 45.4127 41.2366 45.249 41.1392 45.0543L39.9673 42.7106C39.8312 42.433 39.8103 42.1128 39.9092 41.8198C40.0081 41.5268 40.2188 41.2848 40.4954 41.1465C40.772 41.0082 41.092 40.9848 41.3857 41.0815C41.6794 41.1781 41.9231 41.3869 42.0635 41.6624L42.6419 42.8187L48.5685 38.8677C48.8271 38.6973 49.1426 38.6361 49.4462 38.6977C49.7497 38.7592 50.0166 38.9384 50.1884 39.1961C50.3602 39.4538 50.423 39.769 50.3631 40.0729C50.3032 40.3767 50.1254 40.6445 49.8687 40.8177L42.8374 45.5052C42.6449 45.6336 42.4187 45.7021 42.1873 45.7021Z" fill="#91A666"/>
<path d="M30.4686 33.9834C30.251 33.9833 30.0376 33.9227 29.8525 33.8083C29.6674 33.6939 29.5178 33.5302 29.4205 33.3356L28.2486 30.9919C28.1125 30.7142 28.0916 30.394 28.1905 30.1011C28.2894 29.8081 28.5001 29.5661 28.7766 29.4278C29.0532 29.2895 29.3732 29.2661 29.667 29.3627C29.9607 29.4593 30.2043 29.6681 30.3448 29.9436L30.9231 31.1L36.8497 27.149C37.1083 26.9785 37.4239 26.9174 37.7274 26.9789C38.031 27.0405 38.2978 27.2197 38.4696 27.4773C38.6415 27.735 38.7043 28.0503 38.6444 28.3541C38.5845 28.658 38.4067 28.9258 38.1499 29.099L31.1187 33.7865C30.9262 33.9148 30.7 33.9833 30.4686 33.9834Z" fill="#91A666"/>
<path d="M55.0781 66.7969V58.0078C55.0781 56.92 55.5103 55.8768 56.2794 55.1076C57.0486 54.3384 58.0919 53.9063 59.1797 53.9062H67.9688L55.0781 66.7969Z" fill="#BBBAB6"/>
<path d="M25.7812 66.7969H21.0938L18.75 65.625L16.4062 66.7969H11.7188V49.2188L18.75 44.5312L25.7812 49.2188V66.7969Z" fill="#EE9D0D"/>
<path d="M21.0938 67.9688H16.4062V63.2812C16.4062 62.6596 16.6532 62.0635 17.0927 61.624C17.5323 61.1844 18.1284 60.9375 18.75 60.9375C19.3716 60.9375 19.9677 61.1844 20.4073 61.624C20.8468 62.0635 21.0938 62.6596 21.0938 63.2812V67.9688Z" fill="#A86E09"/>
<path d="M15.2344 50.3906H17.5781V52.7344H15.2344V50.3906Z" fill="#EAE9E4"/>
<path d="M15.2344 55.0781H17.5781V57.4219H15.2344V55.0781Z" fill="#EAE9E4"/>
<path d="M19.9219 50.3906H22.2656V52.7344H19.9219V50.3906Z" fill="#EAE9E4"/>
<path d="M19.9219 55.0781H22.2656V57.4219H19.9219V55.0781Z" fill="#EAE9E4"/>
<path d="M67.9688 53.9062V69.4336C67.9688 69.9775 67.7527 70.4991 67.3681 70.8837C66.9835 71.2683 66.4619 71.4844 65.918 71.4844H9.08203C8.53813 71.4844 8.01651 71.2683 7.63191 70.8837C7.24731 70.4991 7.03125 69.9775 7.03125 69.4336V66.7969H55.0781L67.9688 53.9062Z" fill="#A86E09"/>
</svg>
