<svg width="75" height="75" viewBox="0 0 75 75" fill="none" xmlns="http://www.w3.org/2000/svg">
<path d="M59.8023 67.1011H65.9678V24.5312H9.03516V67.1011H18.1853H59.8023Z" fill="#B6A3EF"/>
<path d="M65.9631 24.5239V67.1025H9.03906V63.6029H34.4835C49.9364 63.6029 62.4635 51.0758 62.4635 35.6229V24.5239H65.9631Z" fill="#A186E0"/>
<path d="M66.6105 24.5322H8.38915C5.67803 24.5322 4.73431 20.9308 7.09705 19.6012L36.2008 3.22432C37.0029 2.77298 37.9824 2.77288 38.7846 3.22406L67.9021 19.601C70.2654 20.9302 69.3219 24.5322 66.6105 24.5322Z" fill="#FC6559"/>
<path d="M66.6075 24.5252H8.39108C6.05804 24.5252 5.03334 21.8769 6.29434 20.2847H62.367C63.8645 20.2847 64.8263 19.1654 64.9681 17.9517L67.9002 19.6069C70.2648 20.931 69.3188 24.5252 66.6075 24.5252Z" fill="#F05543"/>
<path d="M51.7674 46.0071V66.7726H23.2344V46.0071C23.2344 38.1251 29.6347 31.7407 37.5009 31.7407C41.4419 31.7407 45.0046 33.3329 47.5899 35.9182C50.1752 38.5035 51.7674 42.0661 51.7674 46.0071Z" fill="white"/>
<path d="M48.5474 36.9586C46.0723 34.9409 42.9353 33.727 39.4989 33.727C31.6327 33.727 25.2324 40.1114 25.2324 47.9934V66.7726H23.2461V46.0071C23.2461 38.1251 29.6464 31.7407 37.5126 31.7407C41.4536 31.7407 45.0163 33.3329 47.6016 35.9182C47.9326 36.2492 48.248 36.5961 48.5474 36.9586Z" fill="#E4E3FF"/>
<path d="M44.5427 55.753C44.4071 55.0753 43.647 53.9521 42.61 53.3299C42.61 53.3155 42.5956 53.3155 42.5956 53.3155C41.8167 52.8251 40.8504 52.5366 39.8263 52.5366C39.6122 52.5366 35.0317 52.5366 35.2686 52.5366C32.5282 52.5366 30.3359 54.527 30.3359 56.9934V65.4453C30.3359 65.7193 30.4225 65.9645 30.5667 66.1809C30.61 66.2385 30.6677 66.3107 30.7254 66.3684C30.7831 66.426 30.8552 66.4837 30.9129 66.527C30.9129 66.5414 30.9129 66.5414 30.9273 66.5414C31.1436 66.6712 31.3888 66.7578 31.6629 66.7578H43.1292L44.5427 55.753Z" fill="#F7F363"/>
<path d="M44.6631 56.202V65.0703C44.6631 66.0113 43.9003 66.7741 42.9593 66.7741H31.6627C30.9297 66.7741 30.3438 66.167 30.3438 65.4342V65.2249H34.8427C39.4108 65.2249 43.1139 61.5218 43.1139 56.9537V54.6528C43.0092 54.1713 42.8418 53.7108 42.5906 53.313C43.6583 53.9829 44.4329 55.0087 44.6631 56.202Z" fill="#F7E839"/>
<path d="M43.0307 46.3224C43.0307 49.3579 40.5616 51.8124 37.5407 51.8124C34.5053 51.8124 32.0508 49.3579 32.0508 46.3224C32.0508 43.3016 34.5053 40.8325 37.5407 40.8325C40.5616 40.8325 43.0307 43.3016 43.0307 46.3224Z" fill="#FC6559"/>
<path d="M69.2512 69.4524C69.2512 70.9184 68.0689 72.1165 66.587 72.1165H8.43371C6.95179 72.1165 5.75391 70.9184 5.75391 69.4524C5.75391 67.9705 6.95179 66.7725 8.43371 66.7725H66.587C68.0689 66.7725 69.2512 67.9705 69.2512 69.4524Z" fill="#F9B938"/>
<path d="M69.2505 69.453C69.2505 70.919 68.0681 72.1171 66.5862 72.1171H8.43298C7.20334 72.1171 6.16286 71.2816 5.84766 70.1624C6.08415 70.2412 6.33624 70.2728 6.58852 70.2728H64.742C66.2237 70.2728 67.406 69.0747 67.406 67.6086C67.406 67.3564 67.3744 67.1042 67.2957 66.8677C68.4307 67.183 69.2505 68.2234 69.2505 69.453Z" fill="#ECB021"/>
<g opacity="0.25">
<path d="M35.1746 6.80749C35.4411 7.28414 35.271 7.88546 34.7943 8.15193L33.1774 9.05585C32.7008 9.32231 32.0995 9.15223 31.833 8.67558C31.5665 8.19893 31.7366 7.59761 32.2133 7.33115L33.8302 6.42723C34.3068 6.16076 34.9081 6.33084 35.1746 6.80749Z" fill="white"/>
<path d="M31.189 9.03405C31.4554 9.5107 31.2853 10.112 30.8087 10.3785L20.2516 16.2803C19.775 16.5468 19.1737 16.3767 18.9072 15.9C18.6407 15.4234 18.8108 14.8221 19.2875 14.5556L29.8445 8.65379C30.3212 8.38733 30.9225 8.5574 31.189 9.03405Z" fill="white"/>
</g>
<g opacity="0.3">
<path d="M11.8482 36.8579C12.3731 36.8579 12.7979 37.2827 12.7979 37.8076V39.5884C12.7979 40.1133 12.3731 40.5381 11.8482 40.5381C11.3232 40.5381 10.8984 40.1133 10.8984 39.5884V37.8076C10.8984 37.2827 11.3232 36.8579 11.8482 36.8579Z" fill="white"/>
<path d="M11.8482 41.2451C12.3731 41.2451 12.7979 41.6699 12.7979 42.1948V53.8215C12.7979 54.3465 12.3731 54.7712 11.8482 54.7712C11.3232 54.7712 10.8984 54.3465 10.8984 53.8215V42.1948C10.8984 41.6699 11.3232 41.2451 11.8482 41.2451Z" fill="white"/>
</g>
</svg>
