<svg width="24" height="24" viewBox="0 0 24 24" fill="none" xmlns="http://www.w3.org/2000/svg">
<path d="M21.9667 13.3246L20.4486 4.76915C20.2422 3.60675 19.1225 2.82775 17.9529 3.03274L4.93194 5.31419C3.76209 5.51915 2.97816 6.63158 3.18442 7.79399L3.29598 8.42271C2.53411 8.75295 2 9.50828 2 10.3856V18.8594C2 20.0397 2.96641 21 4.15428 21H17.08C18.2678 21 19.2343 20.0397 19.2343 18.8594V15.977L20.2192 15.8044C20.7859 15.7051 21.2797 15.3925 21.6098 14.9241C21.9399 14.4557 22.0666 13.8876 21.9667 13.3246ZM20.6473 14.2544C20.4973 14.4673 20.2727 14.6094 20.0152 14.6545L19.2343 14.7913V14.1259V11.4773V10.3856C19.2343 9.20525 18.2678 8.24496 17.08 8.24496H4.45768L4.34167 7.59121C4.29623 7.33527 4.35389 7.07707 4.5039 6.86413C4.65392 6.65124 4.87843 6.50914 5.13601 6.46399L18.157 4.18258C18.2143 4.17253 18.2712 4.16771 18.3275 4.16771C18.7935 4.16771 19.2077 4.5004 19.2914 4.97185L20.8095 13.5273C20.8549 13.7833 20.7973 14.0415 20.6473 14.2544ZM17.08 19.8324H4.15428C3.61434 19.8324 3.17506 19.3959 3.17506 18.8594V14.7097H18.0592V18.8593C18.0592 19.3959 17.6199 19.8324 17.08 19.8324ZM4.15428 9.41262H17.08C17.6199 9.41262 18.0592 9.84911 18.0592 10.3856V10.8935H3.17506V10.3856C3.17506 9.84911 3.61434 9.41262 4.15428 9.41262ZM18.0592 12.0612V13.5421H3.17506V12.0612H18.0592Z" fill="#D66355"/>
<path d="M7.78637 17.627H4.58785C4.19848 17.627 3.88281 17.9426 3.88281 18.332C3.88281 18.7214 4.19848 19.037 4.58785 19.037H7.78637C8.17574 19.037 8.49141 18.7214 8.49141 18.332C8.49141 17.9426 8.17574 17.627 7.78637 17.627Z" fill="#D66355"/>
</svg>
