<svg width="17" height="17" viewBox="0 0 17 17" fill="none" xmlns="http://www.w3.org/2000/svg">
<path fill-rule="evenodd" clip-rule="evenodd" d="M8.33002 0C6.11455 0.00794395 3.99282 0.894979 2.43093 2.46625C0.869032 4.03752 -0.00529037 6.16451 2.40864e-05 8.38C-0.00424676 10.3707 0.701124 12.2977 1.98953 13.8152C3.27794 15.3327 5.06502 16.3413 7.03003 16.66V10.8H4.91002V8.38H7.03003V6.53C7.03003 4.43 8.27002 3.27 10.18 3.27C11.08 3.27 12.04 3.44 12.04 3.44V5.5H10.99C9.95002 5.5 9.63002 6.15 9.63002 6.8V8.38H11.94L11.57 10.8H9.63002V16.66C11.595 16.3413 13.3821 15.3327 14.6705 13.8152C15.9589 12.2977 16.6643 10.3707 16.66 8.38C16.6653 6.16451 15.791 4.03752 14.2291 2.46625C12.6672 0.894979 10.5455 0.00794395 8.33002 0Z" fill="#1A1A1A"/>
</svg>
