<svg width="17" height="17" viewBox="0 0 17 17" fill="none" xmlns="http://www.w3.org/2000/svg">
<path fill-rule="evenodd" clip-rule="evenodd" d="M12.5 0H4.16C3.05751 0.0026407 2.00093 0.441773 1.22135 1.22135C0.441773 2.00093 0.0026407 3.05751 0 4.16V12.5C0.0026407 13.6025 0.441773 14.6591 1.22135 15.4386C2.00093 16.2182 3.05751 16.6574 4.16 16.66H12.5C13.6025 16.6574 14.6591 16.2182 15.4386 15.4386C16.2182 14.6591 16.6574 13.6025 16.66 12.5V4.16C16.66 1.86 14.8 0 12.5 0ZM12.5 1.66C13.163 1.66 13.7989 1.92339 14.2678 2.39223C14.7366 2.86107 15 3.49696 15 4.16V12.5C15 13.163 14.7366 13.7989 14.2678 14.2678C13.7989 14.7366 13.163 15 12.5 15H4.16C3.49696 15 2.86107 14.7366 2.39223 14.2678C1.92339 13.7989 1.66 13.163 1.66 12.5V4.16C1.66 3.49696 1.92339 2.86107 2.39223 2.39223C2.86107 1.92339 3.49696 1.66 4.16 1.66H12.5ZM8.33 4.16C7.22405 4.16 6.16339 4.59934 5.38136 5.38136C4.59934 6.16339 4.16 7.22405 4.16 8.33C4.16 9.43595 4.59934 10.4966 5.38136 11.2786C6.16339 12.0607 7.22405 12.5 8.33 12.5C9.43595 12.5 10.4966 12.0607 11.2786 11.2786C12.0607 10.4966 12.5 9.43595 12.5 8.33C12.5 7.22405 12.0607 6.16339 11.2786 5.38136C10.4966 4.59934 9.43595 4.16 8.33 4.16ZM8.33 5.83C8.99304 5.83 9.62893 6.09339 10.0978 6.56223C10.5666 7.03107 10.83 7.66696 10.83 8.33C10.83 8.99304 10.5666 9.62893 10.0978 10.0978C9.62893 10.5666 8.99304 10.83 8.33 10.83C7.66696 10.83 7.03107 10.5666 6.56223 10.0978C6.09339 9.62893 5.83 8.99304 5.83 8.33C5.83 7.66696 6.09339 7.03107 6.56223 6.56223C7.03107 6.09339 7.66696 5.83 8.33 5.83ZM12.78 4.71C13.0001 4.71 13.2112 4.62255 13.3669 4.4669C13.5226 4.31124 13.61 4.10013 13.61 3.88C13.61 3.65987 13.5226 3.44876 13.3669 3.2931C13.2112 3.13745 13.0001 3.05 12.78 3.05C12.5599 3.05 12.3488 3.13745 12.1931 3.2931C12.0374 3.44876 11.95 3.65987 11.95 3.88C11.95 4.10013 12.0374 4.31124 12.1931 4.4669C12.3488 4.62255 12.5599 4.71 12.78 4.71Z" fill="#1A1A1A"/>
</svg>
