<svg width="18" height="13" viewBox="0 0 18 13" fill="none" xmlns="http://www.w3.org/2000/svg">
<path fill-rule="evenodd" clip-rule="evenodd" d="M6.83 8.59V3.49L11.31 6.04L6.82 8.59H6.83ZM16.8 1.89C16.7029 1.52415 16.5114 1.19024 16.2446 0.921719C15.9778 0.653195 15.6452 0.459487 15.28 0.36C13.95 -3.57628e-07 8.58 0 8.58 0C8.58 0 3.21 -3.57628e-07 1.88 0.36C1.51415 0.45709 1.18024 0.648613 0.911719 0.915381C0.643196 1.18215 0.449488 1.5148 0.35 1.88C3.8743e-07 3.23 0 6.04 0 6.04C0 6.04 3.8743e-07 8.85 0.35 10.2C0.55 10.94 1.13 11.53 1.87 11.73C3.21 12.09 8.57 12.09 8.57 12.09C8.57 12.09 13.95 12.09 15.28 11.73C16.02 11.53 16.6 10.94 16.8 10.2C17.16 8.85 17.16 6.04 17.16 6.04C17.16 6.04 17.16 3.24 16.8 1.88V1.89Z" fill="#1A1A1A"/>
</svg>
